# File created by Blade
# Date/Time:  Tue Jan 27 18:05:41 2015
# Frame Rate: 120.000 fps
#------------------------------------------------------
:FULLY-SPECIFIED
:DEGREES
3945
root -1.069699 31.948250 -6.706519 6.473422 -20.382462 -0.044255
Spine -2.508502 -21.144017 -3.921730
Head 13.665226 31.276937 19.860540
LeftShoulder -14.081772 16.356658 8.969221
LeftArm 25.828281 36.017923 -68.734684
LeftForeArm -0.360528 -0.000000 22.322664
LeftHand -11.686525 -0.000000 -1.840226
LeftHandThumb1 -26.253704 0.000000 33.147579
RightShoulder -16.472593 5.811077 -40.094229
RightArm -3.297019 61.405475 26.168040
RightForeArm 21.519667 -0.000000 81.133170
RightHand -8.168830 -0.000000 5.601354
RightHandThumb1 -24.326973 -0.000000 -32.862282
LeftUpLeg 1.009218 15.420487 -1.258244
LeftLeg -0.080404 -0.000000 0.000000
LeftFoot -24.738679 26.033496 -28.721351
LeftToeBase 9.062772 -0.000000 -0.000000
RightUpLeg -8.414598 9.584611 -3.323706
RightLeg 5.541553 -0.000000 -0.000000
RightFoot -12.230755 -1.747110 6.778860
RightToeBase 2.887892 -0.000000 -0.000000
3946
root -1.066550 31.948528 -6.702599 6.435404 -20.352953 -0.029219
Spine -2.485637 -21.176930 -3.933351
Head 13.784130 31.411616 19.859955
LeftShoulder -14.107018 16.343263 8.965663
LeftArm 25.889706 35.995987 -68.671578
LeftForeArm -0.375413 -0.000000 22.519349
LeftHand -11.675548 -0.000000 -1.690591
LeftHandThumb1 -26.253704 0.000000 33.147579
RightShoulder -16.490101 5.736944 -40.136869
RightArm -3.345068 61.259866 26.139201
RightForeArm 21.784110 0.000000 80.541465
RightHand -8.409229 0.000000 5.265369
RightHandThumb1 -24.326973 -0.000000 -32.862282
LeftUpLeg 1.038029 15.427720 -1.267736
LeftLeg -0.065151 -0.000000 0.000000
LeftFoot -24.728167 26.002391 -28.703485
LeftToeBase 9.083713 -0.000000 -0.000000
RightUpLeg -8.405177 9.595660 -3.338484
RightLeg 5.613711 -0.000000 -0.000000
RightFoot -12.266154 -1.800770 6.763479
RightToeBase 2.828945 -0.000000 -0.000000
3947
root -1.063377 31.948917 -6.699803 6.404254 -20.332200 -0.023939
Spine -2.467485 -21.188749 -3.925281
Head 13.904343 31.555487 19.830316
LeftShoulder -14.104821 16.300365 8.964454
LeftArm 25.851670 35.924629 -68.654724
LeftForeArm -0.105514 -0.000000 22.773430
LeftHand -11.554478 -0.000000 -1.797511
LeftHandThumb1 -26.253704 0.000000 33.147579
RightShoulder -16.517261 5.683575 -40.182172
RightArm -3.432680 61.119938 26.060802
RightForeArm 21.978187 -0.000000 80.072735
RightHand -8.830270 -0.000000 4.892746
RightHandThumb1 -24.326973 -0.000000 -32.862282
LeftUpLeg 1.056139 15.477200 -1.268286
LeftLeg -0.037342 -0.000000 0.000000
LeftFoot -24.727395 25.941984 -28.708408
LeftToeBase 9.108709 -0.000000 -0.000000
RightUpLeg -8.407058 9.659289 -3.350203
RightLeg 5.692305 -0.000000 -0.000000
RightFoot -12.308925 -1.849059 6.810319
RightToeBase 2.874775 -0.000000 -0.000000
3948
root -1.061605 31.949571 -6.695446 6.359369 -20.291808 -0.016046
Spine -2.440036 -21.229521 -3.915803
Head 14.042020 31.716859 19.778357
LeftShoulder -14.117221 16.294516 8.944711
LeftArm 25.843738 35.859407 -68.627630
LeftForeArm -0.122193 -0.000000 23.018508
LeftHand -11.662409 -0.000000 -1.704327
LeftHandThumb1 -26.253704 0.000000 33.147579
RightShoulder -16.527448 5.513319 -40.231809
RightArm -3.488855 61.044069 26.068383
RightForeArm 22.142317 0.000000 79.752370
RightHand -9.296400 0.000000 4.510112
RightHandThumb1 -24.326973 -0.000000 -32.862282
LeftUpLeg 1.096752 15.464717 -1.266970
LeftLeg -0.028693 -0.000000 0.000000
LeftFoot -24.712115 25.934100 -28.690642
LeftToeBase 9.096433 -0.000000 -0.000000
RightUpLeg -8.386563 9.692933 -3.355752
RightLeg 5.764500 -0.000000 -0.000000
RightFoot -12.345008 -1.928923 6.801499
RightToeBase 2.832140 -0.000000 -0.000000
3949
root -1.060750 31.949994 -6.691458 6.312000 -20.240758 -0.006197
Spine -2.410142 -21.280456 -3.915353
Head 14.198219 31.899808 19.751332
LeftShoulder -14.131030 16.302124 8.932808
LeftArm 25.850453 35.804626 -68.589595
LeftForeArm -0.024698 0.000000 23.229726
LeftHand -11.634652 0.000000 -1.567024
LeftHandThumb1 -26.253704 0.000000 33.147579
RightShoulder -16.630056 5.463629 -40.263995
RightArm -3.374649 60.853570 26.167286
RightForeArm 22.345811 0.000000 79.511824
RightHand -9.390476 -0.000000 4.588959
RightHandThumb1 -24.326973 -0.000000 -32.862282
LeftUpLeg 1.138858 15.454563 -1.254965
LeftLeg -0.015207 -0.000000 0.000000
LeftFoot -24.681300 25.894178 -28.640128
LeftToeBase 9.100121 -0.000000 -0.000000
RightUpLeg -8.365093 9.735166 -3.361113
RightLeg 5.841825 -0.000000 -0.000000
RightFoot -12.391813 -2.006066 6.815117
RightToeBase 2.821239 -0.000000 -0.000000
3950
root -1.058909 31.951007 -6.688713 6.274473 -20.181362 0.008677
Spine -2.395843 -21.333075 -3.904669
Head 14.386160 32.091602 19.683487
LeftShoulder -14.146596 16.343027 8.908221
LeftArm 25.915203 35.759918 -68.518364
LeftForeArm -0.029929 0.000000 23.420037
LeftHand -11.645724 -0.000000 -1.622805
LeftHandThumb1 -26.253704 0.000000 33.147579
RightShoulder -16.689518 5.389799 -40.284479
RightArm -3.454580 60.674522 26.104442
RightForeArm 22.489541 0.000000 79.506522
RightHand -9.658574 -0.000000 4.036087
RightHandThumb1 -24.326973 -0.000000 -32.862282
LeftUpLeg 1.147181 15.481311 -1.258929
LeftLeg 0.031930 -0.000000 -0.000000
LeftFoot -24.649943 25.828729 -28.601618
LeftToeBase 9.091877 -0.000000 -0.000000
RightUpLeg -8.362160 9.797752 -3.375483
RightLeg 5.932648 -0.000000 -0.000000
RightFoot -12.449448 -2.122991 6.836970
RightToeBase 2.804096 -0.000000 -0.000000
3951
root -1.056292 31.951704 -6.686266 6.232829 -20.120718 0.023388
Spine -2.375377 -21.410757 -3.885514
Head 14.597778 32.328522 19.646342
LeftShoulder -14.189991 16.364183 8.867504
LeftArm 25.946500 35.709311 -68.463415
LeftForeArm 0.069111 0.000000 23.582326
LeftHand -11.688983 -0.000000 -1.493029
LeftHandThumb1 -26.253704 0.000000 33.147579
RightShoulder -16.725664 5.295333 -40.290472
RightArm -3.527974 60.579706 26.065434
RightForeArm 22.741872 -0.000000 79.640885
RightHand -9.928728 0.000000 4.236776
RightHandThumb1 -24.326973 -0.000000 -32.862282
LeftUpLeg 1.166827 15.466169 -1.269112
LeftLeg 0.061585 -0.000000 -0.000000
LeftFoot -24.675618 25.794925 -28.655066
LeftToeBase 9.122329 -0.000000 -0.000000
RightUpLeg -8.366441 9.830866 -3.388801
RightLeg 6.046082 -0.000000 -0.000000
RightFoot -12.512951 -2.201121 6.837130
RightToeBase 2.807140 -0.000000 -0.000000
3952
root -1.054761 31.952348 -6.683534 6.191984 -20.058055 0.038348
Spine -2.361027 -21.481773 -3.862659
Head 14.823443 32.561860 19.594889
LeftShoulder -14.181391 16.347982 8.854592
LeftArm 25.861822 35.638172 -68.493502
LeftForeArm 0.138866 -0.000000 23.750727
LeftHand -11.719289 -0.000000 -1.501554
LeftHandThumb1 -26.253704 0.000000 33.147579
RightShoulder -16.792616 5.198464 -40.283469
RightArm -3.560487 60.527294 26.088081
RightForeArm 23.004848 -0.000000 79.984848
RightHand -9.965808 -0.000000 4.210358
RightHandThumb1 -24.326973 -0.000000 -32.862282
LeftUpLeg 1.189999 15.440957 -1.264430
LeftLeg 0.092101 -0.000000 -0.000000
LeftFoot -24.623799 25.754120 -28.575380
LeftToeBase 9.091237 -0.000000 -0.000000
RightUpLeg -8.363730 9.875943 -3.400342
RightLeg 6.145454 -0.000000 -0.000000
RightFoot -12.574423 -2.296619 6.867965
RightToeBase 2.806423 -0.000000 -0.000000
3953
root -1.054018 31.952960 -6.679966 6.140021 -20.005215 0.053184
Spine -2.341092 -21.555401 -3.839764
Head 15.072009 32.780214 19.521109
LeftShoulder -14.230410 16.385791 8.809401
LeftArm 25.879553 35.541661 -68.456951
LeftForeArm 0.528653 -0.000000 23.837176
LeftHand -11.580527 -0.000000 -1.853076
LeftHandThumb1 -26.253704 0.000000 33.147579
RightShoulder -16.809391 5.070520 -40.228096
RightArm -3.681962 60.559561 26.012686
RightForeArm 23.270159 -0.000000 80.519981
RightHand -9.816864 0.000000 4.229249
RightHandThumb1 -24.326973 -0.000000 -32.862282
LeftUpLeg 1.224548 15.427089 -1.263794
LeftLeg 0.121755 -0.000000 -0.000000
LeftFoot -24.621461 25.725714 -28.581746
LeftToeBase 9.099251 -0.000000 -0.000000
RightUpLeg -8.356233 9.907004 -3.408040
RightLeg 6.257691 -0.000000 -0.000000
RightFoot -12.624331 -2.359676 6.951427
RightToeBase 2.765709 -0.000000 -0.000000
3954
root -1.052210 31.953594 -6.678872 6.107786 -19.956088 0.071962
Spine -2.346050 -21.613373 -3.804316
Head 15.357096 33.027288 19.442424
LeftShoulder -14.217238 16.397242 8.780960
LeftArm 25.842954 35.523254 -68.434459
LeftForeArm 0.544259 -0.000000 23.949025
LeftHand -11.610916 -0.000000 -1.775704
LeftHandThumb1 -26.253704 0.000000 33.147579
RightShoulder -16.831971 4.932518 -40.183614
RightArm -3.850775 60.695309 25.946244
RightForeArm 23.391818 -0.000000 81.265590
RightHand -9.708008 -0.000000 4.639058
RightHandThumb1 -24.326973 -0.000000 -32.862282
LeftUpLeg 1.228295 15.436025 -1.277052
LeftLeg 0.152751 -0.000000 -0.000000
LeftFoot -24.593241 25.704479 -28.542989
LeftToeBase 9.061980 -0.000000 -0.000000
RightUpLeg -8.379513 9.932285 -3.421325
RightLeg 6.384642 -0.000000 -0.000000
RightFoot -12.701057 -2.462898 6.887676
RightToeBase 2.778945 -0.000000 -0.000000
3955
root -1.050019 31.953576 -6.678031 6.081254 -19.920027 0.087885
Spine -2.369602 -21.663890 -3.753733
Head 15.684965 33.309876 19.350466
LeftShoulder -14.202301 16.423145 8.753435
LeftArm 25.810628 35.500350 -68.426643
LeftForeArm 0.548011 0.000000 24.017145
LeftHand -11.596595 -0.000000 -1.777481
LeftHandThumb1 -26.253704 0.000000 33.147579
RightShoulder -16.864455 4.896223 -40.140403
RightArm -4.065476 60.736227 25.806441
RightForeArm 23.549335 -0.000000 82.202518
RightHand -9.522163 -0.000000 4.794090
RightHandThumb1 -24.326973 -0.000000 -32.862282
LeftUpLeg 1.241559 15.438540 -1.286265
LeftLeg 0.162573 -0.000000 -0.000000
LeftFoot -24.573663 25.685143 -28.521935
LeftToeBase 9.069686 -0.000000 -0.000000
RightUpLeg -8.411686 9.967117 -3.437377
RightLeg 6.511120 -0.000000 -0.000000
RightFoot -12.765592 -2.523362 6.903459
RightToeBase 2.780905 -0.000000 -0.000000
3956
root -1.049279 31.953437 -6.677732 6.051063 -19.890885 0.104018
Spine -2.386680 -21.714695 -3.718743
Head 15.923687 33.495229 19.140584
LeftShoulder -14.195464 16.447153 8.748985
LeftArm 25.783739 35.538562 -68.414418
LeftForeArm 0.383272 -0.000000 24.074009
LeftHand -11.685935 -0.000000 -1.578716
LeftHandThumb1 -26.253704 0.000000 33.147579
RightShoulder -16.924938 4.798530 -40.075142
RightArm -4.108447 60.921897 25.880164
RightForeArm 23.627814 -0.000000 83.316940
RightHand -9.443475 0.000000 4.968793
RightHandThumb1 -24.326973 -0.000000 -32.862282
LeftUpLeg 1.247171 15.463036 -1.294404
LeftLeg 0.196678 -0.000000 -0.000000
LeftFoot -24.563242 25.639665 -28.502680
LeftToeBase 9.056264 -0.000000 -0.000000
RightUpLeg -8.453213 9.985711 -3.446197
RightLeg 6.666763 -0.000000 -0.000000
RightFoot -12.845846 -2.578316 6.902933
RightToeBase 2.757193 -0.000000 -0.000000
